# This file uses centimeters as units for non-parametric coordinates.

mtllib head.mtl
g default
v -1.472222 -0.155079 1.477778
v 1.472222 -0.155079 1.477778
v -1.472222 2.502509 1.477778
v 1.472222 2.502509 1.477778
v -1.472222 2.502509 -1.477778
v 1.472222 2.502509 -1.477778
v -1.472222 -0.155079 -1.477778
v 1.472222 -0.155079 -1.477778
vt 0.375000 0.000000
vt 0.625000 0.000000
vt 0.375000 0.250000
vt 0.625000 0.250000
vt 0.375000 0.500000
vt 0.625000 0.500000
vt 0.375000 0.750000
vt 0.625000 0.750000
vt 0.375000 1.000000
vt 0.625000 1.000000
vt 0.875000 0.000000
vt 0.875000 0.250000
vt 0.125000 0.000000
vt 0.125000 0.250000
vn 0.000000 0.000000 1.000000
vn 0.000000 0.000000 1.000000
vn 0.000000 0.000000 1.000000
vn 0.000000 0.000000 1.000000
vn 0.000000 1.000000 0.000000
vn 0.000000 1.000000 0.000000
vn 0.000000 1.000000 0.000000
vn 0.000000 1.000000 0.000000
vn 0.000000 0.000000 -1.000000
vn 0.000000 0.000000 -1.000000
vn 0.000000 0.000000 -1.000000
vn 0.000000 0.000000 -1.000000
vn 0.000000 -1.000000 0.000000
vn 0.000000 -1.000000 0.000000
vn 0.000000 -1.000000 0.000000
vn 0.000000 -1.000000 0.000000
vn 1.000000 0.000000 0.000000
vn 1.000000 0.000000 0.000000
vn 1.000000 0.000000 0.000000
vn 1.000000 0.000000 0.000000
vn -1.000000 0.000000 0.000000
vn -1.000000 0.000000 0.000000
vn -1.000000 0.000000 0.000000
vn -1.000000 0.000000 0.000000
s 1
g pCube1 pCube12
usemtl lambert2SG
f 1/1/1 2/2/2 3/3/3
f 3/3/3 2/2/2 4/4/4
s 2
f 3/3/5 4/4/6 5/5/7
f 5/5/7 4/4/6 6/6/8
s 3
f 5/5/9 6/6/10 7/7/11
f 7/7/11 6/6/10 8/8/12
s 4
f 7/7/13 8/8/14 1/9/15
f 1/9/15 8/8/14 2/10/16
s 5
f 2/2/17 8/11/18 4/4/19
f 4/4/19 8/11/18 6/12/20
s 6
f 7/13/21 1/1/22 5/14/23
f 5/14/23 1/1/22 3/3/24
g default
v -0.550221 1.542746 1.585411
v -0.339110 1.542746 1.585411
v -0.550221 2.153117 1.585411
v -0.339110 2.153117 1.585411
v -0.550221 2.153117 1.389856
v -0.339110 2.153117 1.389856
v -0.550221 1.542746 1.389856
v -0.339110 1.542746 1.389856
vt 0.375000 0.000000
vt 0.625000 0.000000
vt 0.375000 0.250000
vt 0.625000 0.250000
vt 0.375000 0.500000
vt 0.625000 0.500000
vt 0.375000 0.750000
vt 0.625000 0.750000
vt 0.375000 1.000000
vt 0.625000 1.000000
vt 0.875000 0.000000
vt 0.875000 0.250000
vt 0.125000 0.000000
vt 0.125000 0.250000
vn 0.000000 0.000000 1.000000
vn 0.000000 0.000000 1.000000
vn 0.000000 0.000000 1.000000
vn 0.000000 0.000000 1.000000
vn 0.000000 1.000000 0.000000
vn 0.000000 1.000000 0.000000
vn 0.000000 1.000000 0.000000
vn 0.000000 1.000000 0.000000
vn 0.000000 0.000000 -1.000000
vn 0.000000 0.000000 -1.000000
vn 0.000000 0.000000 -1.000000
vn 0.000000 0.000000 -1.000000
vn 0.000000 -1.000000 0.000000
vn 0.000000 -1.000000 0.000000
vn 0.000000 -1.000000 0.000000
vn 0.000000 -1.000000 0.000000
vn 1.000000 0.000000 0.000000
vn 1.000000 0.000000 0.000000
vn 1.000000 0.000000 0.000000
vn 1.000000 0.000000 0.000000
vn -1.000000 0.000000 0.000000
vn -1.000000 0.000000 0.000000
vn -1.000000 0.000000 0.000000
vn -1.000000 0.000000 0.000000
s 1
g pCube1 pCube12 pCube16
usemtl lambert4SG
f 9/15/25 10/16/26 11/17/27
f 11/17/27 10/16/26 12/18/28
s 2
f 11/17/29 12/18/30 13/19/31
f 13/19/31 12/18/30 14/20/32
s 3
f 13/19/33 14/20/34 15/21/35
f 15/21/35 14/20/34 16/22/36
s 4
f 15/21/37 16/22/38 9/23/39
f 9/23/39 16/22/38 10/24/40
s 5
f 10/16/41 16/25/42 12/18/43
f 12/18/43 16/25/42 14/26/44
s 6
f 15/27/45 9/15/46 13/28/47
f 13/28/47 9/15/46 11/17/48
g default
v 0.229579 1.542746 1.585411
v 0.440690 1.542746 1.585411
v 0.229579 2.153117 1.585411
v 0.440690 2.153117 1.585411
v 0.229579 2.153117 1.389856
v 0.440690 2.153117 1.389856
v 0.229579 1.542746 1.389856
v 0.440690 1.542746 1.389856
vt 0.375000 0.000000
vt 0.625000 0.000000
vt 0.375000 0.250000
vt 0.625000 0.250000
vt 0.375000 0.500000
vt 0.625000 0.500000
vt 0.375000 0.750000
vt 0.625000 0.750000
vt 0.375000 1.000000
vt 0.625000 1.000000
vt 0.875000 0.000000
vt 0.875000 0.250000
vt 0.125000 0.000000
vt 0.125000 0.250000
vn 0.000000 0.000000 1.000000
vn 0.000000 0.000000 1.000000
vn 0.000000 0.000000 1.000000
vn 0.000000 0.000000 1.000000
vn 0.000000 1.000000 0.000000
vn 0.000000 1.000000 0.000000
vn 0.000000 1.000000 0.000000
vn 0.000000 1.000000 0.000000
vn 0.000000 0.000000 -1.000000
vn 0.000000 0.000000 -1.000000
vn 0.000000 0.000000 -1.000000
vn 0.000000 0.000000 -1.000000
vn 0.000000 -1.000000 0.000000
vn 0.000000 -1.000000 0.000000
vn 0.000000 -1.000000 0.000000
vn 0.000000 -1.000000 0.000000
vn 1.000000 0.000000 0.000000
vn 1.000000 0.000000 0.000000
vn 1.000000 0.000000 0.000000
vn 1.000000 0.000000 0.000000
vn -1.000000 0.000000 0.000000
vn -1.000000 0.000000 0.000000
vn -1.000000 0.000000 0.000000
vn -1.000000 0.000000 0.000000
s 1
g pCube1 pCube12 pCube7
usemtl lambert4SG
f 17/29/49 18/30/50 19/31/51
f 19/31/51 18/30/50 20/32/52
s 2
f 19/31/53 20/32/54 21/33/55
f 21/33/55 20/32/54 22/34/56
s 3
f 21/33/57 22/34/58 23/35/59
f 23/35/59 22/34/58 24/36/60
s 4
f 23/35/61 24/36/62 17/37/63
f 17/37/63 24/36/62 18/38/64
s 5
f 18/30/65 24/39/66 20/32/67
f 20/32/67 24/39/66 22/40/68
s 6
f 23/41/69 17/29/70 21/42/71
f 21/42/71 17/29/70 19/31/72
g default
v 0.629006 2.272763 1.244715
v 1.417895 2.272763 1.244715
v 0.629006 3.056142 1.404461
v 1.417895 3.056142 1.404461
v 0.629006 3.215926 0.620895
v 1.417895 3.215926 0.620895
v 0.629006 2.432547 0.461149
v 1.417895 2.432547 0.461149
vt 0.375000 0.000000
vt 0.625000 0.000000
vt 0.375000 0.250000
vt 0.625000 0.250000
vt 0.375000 0.500000
vt 0.625000 0.500000
vt 0.375000 0.750000
vt 0.625000 0.750000
vt 0.375000 1.000000
vt 0.625000 1.000000
vt 0.875000 0.000000
vt 0.875000 0.250000
vt 0.125000 0.000000
vt 0.125000 0.250000
vn 0.000000 -0.199807 0.979835
vn 0.000000 -0.199807 0.979835
vn 0.000000 -0.199807 0.979835
vn 0.000000 -0.199807 0.979835
vn 0.000000 0.979835 0.199807
vn 0.000000 0.979835 0.199807
vn 0.000000 0.979835 0.199807
vn 0.000000 0.979835 0.199806
vn 0.000000 0.199807 -0.979835
vn 0.000000 0.199807 -0.979835
vn 0.000000 0.199807 -0.979835
vn 0.000000 0.199807 -0.979835
vn 0.000000 -0.979835 -0.199807
vn 0.000000 -0.979835 -0.199807
vn 0.000000 -0.979835 -0.199807
vn 0.000000 -0.979835 -0.199807
vn 1.000000 0.000000 0.000000
vn 1.000000 0.000000 0.000000
vn 1.000000 0.000000 0.000000
vn 1.000000 0.000000 0.000000
vn -1.000000 0.000000 0.000000
vn -1.000000 0.000000 0.000000
vn -1.000000 0.000000 0.000000
vn -1.000000 0.000000 0.000000
s 1
g pCube1 pCube12 pCube9
usemtl lambert2SG
f 25/43/73 26/44/74 27/45/75
f 27/45/75 26/44/74 28/46/76
s 2
f 27/45/77 28/46/78 29/47/79
f 29/47/79 28/46/78 30/48/80
s 3
f 29/47/81 30/48/82 31/49/83
f 31/49/83 30/48/82 32/50/84
s 4
f 31/49/85 32/50/86 25/51/87
f 25/51/87 32/50/86 26/52/88
s 5
f 26/44/89 32/53/90 28/46/91
f 28/46/91 32/53/90 30/54/92
s 6
f 31/55/93 25/43/94 29/56/95
f 29/56/95 25/43/94 27/45/96
g default
v 0.791167 2.439881 1.339250
v 1.255735 2.439881 1.339250
v 0.791167 2.881263 1.434720
v 1.255735 2.881263 1.434720
v 0.791167 2.980353 0.976603
v 1.255735 2.980353 0.976603
v 0.791167 2.538971 0.881133
v 1.255735 2.538971 0.881133
vt 0.375000 0.000000
vt 0.625000 0.000000
vt 0.375000 0.250000
vt 0.625000 0.250000
vt 0.375000 0.500000
vt 0.625000 0.500000
vt 0.375000 0.750000
vt 0.625000 0.750000
vt 0.375000 1.000000
vt 0.625000 1.000000
vt 0.875000 0.000000
vt 0.875000 0.250000
vt 0.125000 0.000000
vt 0.125000 0.250000
vn 0.000000 -0.211410 0.977398
vn 0.000000 -0.211410 0.977398
vn 0.000000 -0.211410 0.977398
vn 0.000000 -0.211409 0.977398
vn 0.000000 0.977398 0.211409
vn 0.000000 0.977398 0.211409
vn 0.000000 0.977398 0.211409
vn 0.000000 0.977398 0.211409
vn 0.000000 0.211410 -0.977397
vn 0.000000 0.211410 -0.977398
vn 0.000000 0.211410 -0.977398
vn 0.000000 0.211409 -0.977398
vn 0.000000 -0.977398 -0.211410
vn 0.000000 -0.977398 -0.211410
vn 0.000000 -0.977398 -0.211410
vn 0.000000 -0.977398 -0.211410
vn 1.000000 0.000000 0.000000
vn 1.000000 0.000000 0.000000
vn 1.000000 0.000000 0.000000
vn 1.000000 0.000000 0.000000
vn -1.000000 0.000000 0.000000
vn -1.000000 0.000000 0.000000
vn -1.000000 0.000000 0.000000
vn -1.000000 0.000000 0.000000
s 1
g pCube1 pCube12 pCube9 pCube11
usemtl lambert3SG
f 33/57/97 34/58/98 35/59/99
f 35/59/99 34/58/98 36/60/100
s 2
f 35/59/101 36/60/102 37/61/103
f 37/61/103 36/60/102 38/62/104
s 3
f 37/61/105 38/62/106 39/63/107
f 39/63/107 38/62/106 40/64/108
s 4
f 39/63/109 40/64/110 33/65/111
f 33/65/111 40/64/110 34/66/112
s 5
f 34/58/113 40/67/114 36/60/115
f 36/60/115 40/67/114 38/68/116
s 6
f 39/69/117 33/57/118 37/70/119
f 37/70/119 33/57/118 35/59/120
g default
v -1.119865 2.272763 1.244715
v -0.330976 2.272763 1.244715
v -1.119865 3.056142 1.404461
v -0.330976 3.056142 1.404461
v -1.119865 3.215926 0.620895
v -0.330976 3.215926 0.620895
v -1.119865 2.432547 0.461149
v -0.330976 2.432547 0.461149
vt 0.375000 0.000000
vt 0.625000 0.000000
vt 0.375000 0.250000
vt 0.625000 0.250000
vt 0.375000 0.500000
vt 0.625000 0.500000
vt 0.375000 0.750000
vt 0.625000 0.750000
vt 0.375000 1.000000
vt 0.625000 1.000000
vt 0.875000 0.000000
vt 0.875000 0.250000
vt 0.125000 0.000000
vt 0.125000 0.250000
vn 0.000000 -0.199807 0.979835
vn 0.000000 -0.199807 0.979835
vn 0.000000 -0.199807 0.979835
vn 0.000000 -0.199807 0.979835
vn 0.000000 0.979835 0.199807
vn 0.000000 0.979835 0.199807
vn 0.000000 0.979835 0.199807
vn 0.000000 0.979835 0.199806
vn 0.000000 0.199807 -0.979835
vn 0.000000 0.199807 -0.979835
vn 0.000000 0.199807 -0.979835
vn 0.000000 0.199807 -0.979835
vn 0.000000 -0.979835 -0.199808
vn 0.000000 -0.979835 -0.199807
vn 0.000000 -0.979835 -0.199807
vn 0.000000 -0.979835 -0.199807
vn 1.000000 0.000000 0.000000
vn 1.000000 0.000000 0.000000
vn 1.000000 0.000000 0.000000
vn 1.000000 0.000000 0.000000
vn -1.000000 -0.000000 0.000000
vn -1.000000 -0.000000 0.000000
vn -1.000000 -0.000000 0.000000
vn -1.000000 0.000000 0.000000
s 1
g pCube1 pCube12 pCube18
usemtl lambert2SG
f 41/71/121 42/72/122 43/73/123
f 43/73/123 42/72/122 44/74/124
s 2
f 43/73/125 44/74/126 45/75/127
f 45/75/127 44/74/126 46/76/128
s 3
f 45/75/129 46/76/130 47/77/131
f 47/77/131 46/76/130 48/78/132
s 4
f 47/77/133 48/78/134 41/79/135
f 41/79/135 48/78/134 42/80/136
s 5
f 42/72/137 48/81/138 44/74/139
f 44/74/139 48/81/138 46/82/140
s 6
f 47/83/141 41/71/142 45/84/143
f 45/84/143 41/71/142 43/73/144
g default
v -0.957704 2.439881 1.339250
v -0.493136 2.439881 1.339250
v -0.957704 2.881263 1.434720
v -0.493136 2.881263 1.434720
v -0.957704 2.980353 0.976603
v -0.493136 2.980353 0.976603
v -0.957704 2.538971 0.881133
v -0.493136 2.538971 0.881133
vt 0.375000 0.000000
vt 0.625000 0.000000
vt 0.375000 0.250000
vt 0.625000 0.250000
vt 0.375000 0.500000
vt 0.625000 0.500000
vt 0.375000 0.750000
vt 0.625000 0.750000
vt 0.375000 1.000000
vt 0.625000 1.000000
vt 0.875000 0.000000
vt 0.875000 0.250000
vt 0.125000 0.000000
vt 0.125000 0.250000
vn 0.000000 -0.211410 0.977398
vn 0.000000 -0.211410 0.977398
vn 0.000000 -0.211410 0.977398
vn 0.000000 -0.211410 0.977398
vn 0.000000 0.977398 0.211410
vn 0.000000 0.977398 0.211409
vn 0.000000 0.977398 0.211409
vn 0.000000 0.977398 0.211409
vn 0.000000 0.211410 -0.977398
vn 0.000000 0.211410 -0.977398
vn 0.000000 0.211410 -0.977398
vn 0.000000 0.211410 -0.977398
vn 0.000000 -0.977398 -0.211410
vn 0.000000 -0.977398 -0.211410
vn 0.000000 -0.977398 -0.211410
vn 0.000000 -0.977398 -0.211410
vn 1.000000 0.000000 0.000000
vn 1.000000 0.000000 0.000000
vn 1.000000 0.000000 0.000000
vn 1.000000 0.000000 0.000000
vn -1.000000 0.000000 0.000000
vn -1.000000 0.000000 0.000000
vn -1.000000 0.000000 0.000000
vn -1.000000 0.000000 0.000000
s 1
g pCube1 pCube12 pCube18 pCube17
usemtl lambert3SG
f 49/85/145 50/86/146 51/87/147
f 51/87/147 50/86/146 52/88/148
s 2
f 51/87/149 52/88/150 53/89/151
f 53/89/151 52/88/150 54/90/152
s 3
f 53/89/153 54/90/154 55/91/155
f 55/91/155 54/90/154 56/92/156
s 4
f 55/91/157 56/92/158 49/93/159
f 49/93/159 56/92/158 50/94/160
s 5
f 50/86/161 56/95/162 52/88/163
f 52/88/163 56/95/162 54/96/164
s 6
f 55/97/165 49/85/166 53/98/167
f 53/98/167 49/85/166 51/87/168
g default
v -0.245432 0.951669 2.137576
v 0.245432 0.951669 2.137576
v -0.245432 1.269265 1.996679
v 0.245432 1.269265 1.996679
v -0.245432 1.080022 1.570105
v 0.245432 1.080022 1.570105
v -0.245432 0.762426 1.711002
v 0.245432 0.762426 1.711002
vt 0.375000 0.000000
vt 0.625000 0.000000
vt 0.375000 0.250000
vt 0.625000 0.250000
vt 0.375000 0.500000
vt 0.625000 0.500000
vt 0.375000 0.750000
vt 0.625000 0.750000
vt 0.375000 1.000000
vt 0.625000 1.000000
vt 0.875000 0.000000
vt 0.875000 0.250000
vt 0.125000 0.000000
vt 0.125000 0.250000
vn 0.000000 0.405521 0.914086
vn 0.000000 0.405521 0.914086
vn 0.000000 0.405521 0.914086
vn 0.000000 0.405521 0.914086
vn 0.000000 0.914086 -0.405521
vn 0.000000 0.914086 -0.405521
vn 0.000000 0.914086 -0.405521
vn 0.000000 0.914086 -0.405521
vn 0.000000 -0.405521 -0.914086
vn 0.000000 -0.405521 -0.914086
vn 0.000000 -0.405521 -0.914086
vn 0.000000 -0.405521 -0.914086
vn 0.000000 -0.914086 0.405521
vn 0.000000 -0.914086 0.405521
vn 0.000000 -0.914086 0.405521
vn 0.000000 -0.914086 0.405521
vn 1.000000 0.000000 0.000000
vn 1.000000 0.000000 0.000000
vn 1.000000 0.000000 0.000000
vn 1.000000 0.000000 0.000000
vn -1.000000 0.000000 0.000000
vn -1.000000 0.000000 0.000000
vn -1.000000 0.000000 0.000000
vn -1.000000 0.000000 0.000000
s 1
g pCube1 pCube12 pCube4
usemtl lambert4SG
f 57/99/169 58/100/170 59/101/171
f 59/101/171 58/100/170 60/102/172
s 2
f 59/101/173 60/102/174 61/103/175
f 61/103/175 60/102/174 62/104/176
s 3
f 61/103/177 62/104/178 63/105/179
f 63/105/179 62/104/178 64/106/180
s 4
f 63/105/181 64/106/182 57/107/183
f 57/107/183 64/106/182 58/108/184
s 5
f 58/100/185 64/109/186 60/102/187
f 60/102/187 64/109/186 62/110/188
s 6
f 63/111/189 57/99/190 61/112/191
f 61/112/191 57/99/190 59/101/192
g default
v -0.788889 0.211038 2.060242
v 0.788889 0.211038 2.060242
v -0.788889 1.352831 1.854129
v 0.788889 1.352831 1.854129
v -0.788889 1.175185 0.870034
v 0.788889 1.175185 0.870034
v -0.788889 0.033393 1.076147
v 0.788889 0.033393 1.076147
vt 0.375000 0.000000
vt 0.625000 0.000000
vt 0.375000 0.250000
vt 0.625000 0.250000
vt 0.375000 0.500000
vt 0.625000 0.500000
vt 0.375000 0.750000
vt 0.625000 0.750000
vt 0.375000 1.000000
vt 0.625000 1.000000
vt 0.875000 0.000000
vt 0.875000 0.250000
vt 0.125000 0.000000
vt 0.125000 0.250000
vn 0.000000 0.177646 0.984095
vn 0.000000 0.177646 0.984095
vn 0.000000 0.177646 0.984095
vn 0.000000 0.177646 0.984095
vn 0.000000 0.984095 -0.177646
vn 0.000000 0.984095 -0.177646
vn 0.000000 0.984095 -0.177646
vn 0.000000 0.984095 -0.177646
vn 0.000000 -0.177646 -0.984095
vn 0.000000 -0.177646 -0.984095
vn 0.000000 -0.177646 -0.984095
vn 0.000000 -0.177646 -0.984095
vn 0.000000 -0.984095 0.177646
vn 0.000000 -0.984095 0.177646
vn 0.000000 -0.984095 0.177646
vn 0.000000 -0.984095 0.177646
vn 1.000000 -0.000000 0.000000
vn 1.000000 -0.000000 0.000000
vn 1.000000 -0.000000 0.000000
vn 1.000000 0.000000 0.000000
vn -1.000000 0.000000 0.000000
vn -1.000000 0.000000 0.000000
vn -1.000000 0.000000 0.000000
vn -1.000000 0.000000 0.000000
s 1
g pCube1 pCube12 pCube2
usemtl lambert3SG
f 65/113/193 66/114/194 67/115/195
f 67/115/195 66/114/194 68/116/196
s 2
f 67/115/197 68/116/198 69/117/199
f 69/117/199 68/116/198 70/118/200
s 3
f 69/117/201 70/118/202 71/119/203
f 71/119/203 70/118/202 72/120/204
s 4
f 71/119/205 72/120/206 65/121/207
f 65/121/207 72/120/206 66/122/208
s 5
f 66/114/209 72/123/210 68/116/211
f 68/116/211 72/123/210 70/124/212
s 6
f 71/125/213 65/113/214 69/126/215
f 69/126/215 65/113/214 67/115/216
g default
v -0.411111 -0.029613 1.730744
v 0.411111 -0.029613 1.730744
v -0.411111 0.328738 1.770984
v 0.411111 0.328738 1.770984
v -0.411111 0.367892 1.422312
v 0.411111 0.367892 1.422312
v -0.411111 0.009541 1.382071
v 0.411111 0.009541 1.382071
vt 0.375000 0.000000
vt 0.625000 0.000000
vt 0.375000 0.250000
vt 0.625000 0.250000
vt 0.375000 0.500000
vt 0.625000 0.500000
vt 0.375000 0.750000
vt 0.625000 0.750000
vt 0.375000 1.000000
vt 0.625000 1.000000
vt 0.875000 0.000000
vt 0.875000 0.250000
vt 0.125000 0.000000
vt 0.125000 0.250000
vn 0.000000 -0.111592 0.993754
vn 0.000000 -0.111592 0.993754
vn 0.000000 -0.111592 0.993754
vn 0.000000 -0.111592 0.993754
vn 0.000000 0.993754 0.111592
vn 0.000000 0.993754 0.111592
vn 0.000000 0.993754 0.111592
vn 0.000000 0.993754 0.111592
vn 0.000000 0.111592 -0.993754
vn 0.000000 0.111592 -0.993754
vn 0.000000 0.111592 -0.993754
vn 0.000000 0.111593 -0.993754
vn 0.000000 -0.993754 -0.111592
vn 0.000000 -0.993754 -0.111593
vn 0.000000 -0.993754 -0.111593
vn 0.000000 -0.993754 -0.111593
vn 1.000000 0.000000 0.000000
vn 1.000000 0.000000 0.000000
vn 1.000000 0.000000 0.000000
vn 1.000000 0.000000 0.000000
vn -1.000000 -0.000000 0.000000
vn -1.000000 -0.000000 0.000000
vn -1.000000 -0.000000 0.000000
vn -1.000000 0.000000 0.000000
s 1
g pCube1 pCube12 pCube5
usemtl lambert5SG
f 73/127/217 74/128/218 75/129/219
f 75/129/219 74/128/218 76/130/220
s 2
f 75/129/221 76/130/222 77/131/223
f 77/131/223 76/130/222 78/132/224
s 3
f 77/131/225 78/132/226 79/133/227
f 79/133/227 78/132/226 80/134/228
s 4
f 79/133/229 80/134/230 73/135/231
f 73/135/231 80/134/230 74/136/232
s 5
f 74/128/233 80/137/234 76/130/235
f 76/130/235 80/137/234 78/138/236
s 6
f 79/139/237 73/127/238 77/140/239
f 77/140/239 73/127/238 75/129/240
g default
v -0.500000 -0.230821 1.792557
v 0.500000 -0.230821 1.792557
v -0.500000 0.001230 1.902968
v 0.500000 0.001230 1.902968
v -0.500000 0.252599 1.374670
v 0.500000 0.252599 1.374670
v -0.500000 0.020549 1.264259
v 0.500000 0.020549 1.264259
vt 0.375000 0.000000
vt 0.625000 0.000000
vt 0.375000 0.250000
vt 0.625000 0.250000
vt 0.375000 0.500000
vt 0.625000 0.500000
vt 0.375000 0.750000
vt 0.625000 0.750000
vt 0.375000 1.000000
vt 0.625000 1.000000
vt 0.875000 0.000000
vt 0.875000 0.250000
vt 0.125000 0.000000
vt 0.125000 0.250000
vn 0.000000 -0.429654 0.902994
vn 0.000000 -0.429654 0.902994
vn 0.000000 -0.429654 0.902994
vn 0.000000 -0.429654 0.902994
vn 0.000000 0.902994 0.429653
vn 0.000000 0.902994 0.429653
vn 0.000000 0.902994 0.429653
vn 0.000000 0.902994 0.429653
vn 0.000000 0.429654 -0.902994
vn 0.000000 0.429654 -0.902994
vn 0.000000 0.429654 -0.902994
vn 0.000000 0.429654 -0.902994
vn 0.000000 -0.902994 -0.429654
vn 0.000000 -0.902994 -0.429654
vn 0.000000 -0.902994 -0.429654
vn 0.000000 -0.902994 -0.429654
vn 1.000000 0.000000 0.000000
vn 1.000000 0.000000 0.000000
vn 1.000000 0.000000 0.000000
vn 1.000000 0.000000 0.000000
vn -1.000000 0.000000 0.000000
vn -1.000000 0.000000 0.000000
vn -1.000000 0.000000 0.000000
vn -1.000000 0.000000 0.000000
s 1
g pCube1 pCube12 pCube6
usemtl lambert3SG
f 81/141/241 82/142/242 83/143/243
f 83/143/243 82/142/242 84/144/244
s 2
f 83/143/245 84/144/246 85/145/247
f 85/145/247 84/144/246 86/146/248
s 3
f 85/145/249 86/146/250 87/147/251
f 87/147/251 86/146/250 88/148/252
s 4
f 87/147/253 88/148/254 81/149/255
f 81/149/255 88/148/254 82/150/256
s 5
f 82/142/257 88/151/258 84/144/259
f 84/144/259 88/151/258 86/152/260
s 6
f 87/153/261 81/141/262 85/154/263
f 85/154/263 81/141/262 83/143/264
g default
v -0.474690 1.903150 1.612189
v -0.414641 1.903150 1.612189
v -0.474690 2.022110 1.612189
v -0.414641 2.022110 1.612189
v -0.474690 2.022110 1.474411
v -0.414641 2.022110 1.474411
v -0.474690 1.903150 1.474411
v -0.414641 1.903150 1.474411
vt 0.375000 0.000000
vt 0.625000 0.000000
vt 0.375000 0.250000
vt 0.625000 0.250000
vt 0.375000 0.500000
vt 0.625000 0.500000
vt 0.375000 0.750000
vt 0.625000 0.750000
vt 0.375000 1.000000
vt 0.625000 1.000000
vt 0.875000 0.000000
vt 0.875000 0.250000
vt 0.125000 0.000000
vt 0.125000 0.250000
vn 0.000000 0.000000 1.000000
vn 0.000000 0.000000 1.000000
vn 0.000000 0.000000 1.000000
vn 0.000000 0.000000 1.000000
vn 0.000000 1.000000 0.000000
vn 0.000000 1.000000 0.000000
vn 0.000000 1.000000 0.000000
vn 0.000000 1.000000 0.000000
vn 0.000000 0.000000 -1.000000
vn 0.000000 0.000000 -1.000000
vn 0.000000 0.000000 -1.000000
vn 0.000000 0.000000 -1.000000
vn 0.000000 -1.000000 0.000000
vn 0.000000 -1.000000 0.000000
vn 0.000000 -1.000000 0.000000
vn 0.000000 -1.000000 0.000000
vn 1.000000 0.000000 0.000000
vn 1.000000 0.000000 0.000000
vn 1.000000 0.000000 0.000000
vn 1.000000 0.000000 0.000000
vn -1.000000 0.000000 0.000000
vn -1.000000 0.000000 0.000000
vn -1.000000 0.000000 0.000000
vn -1.000000 0.000000 0.000000
s 1
g pCube1 pCube12 pCube15
usemtl lambert3SG
f 89/155/265 90/156/266 91/157/267
f 91/157/267 90/156/266 92/158/268
s 2
f 91/157/269 92/158/270 93/159/271
f 93/159/271 92/158/270 94/160/272
s 3
f 93/159/273 94/160/274 95/161/275
f 95/161/275 94/160/274 96/162/276
s 4
f 95/161/277 96/162/278 89/163/279
f 89/163/279 96/162/278 90/164/280
s 5
f 90/156/281 96/165/282 92/158/283
f 92/158/283 96/165/282 94/166/284
s 6
f 95/167/285 89/155/286 93/168/287
f 93/168/287 89/155/286 91/157/288
g default
v 0.305110 1.903150 1.612189
v 0.365159 1.903150 1.612189
v 0.305110 2.022110 1.612189
v 0.365159 2.022110 1.612189
v 0.305110 2.022110 1.474411
v 0.365159 2.022110 1.474411
v 0.305110 1.903150 1.474411
v 0.365159 1.903150 1.474411
vt 0.375000 0.000000
vt 0.625000 0.000000
vt 0.375000 0.250000
vt 0.625000 0.250000
vt 0.375000 0.500000
vt 0.625000 0.500000
vt 0.375000 0.750000
vt 0.625000 0.750000
vt 0.375000 1.000000
vt 0.625000 1.000000
vt 0.875000 0.000000
vt 0.875000 0.250000
vt 0.125000 0.000000
vt 0.125000 0.250000
vn 0.000000 0.000000 1.000000
vn 0.000000 0.000000 1.000000
vn 0.000000 0.000000 1.000000
vn 0.000000 0.000000 1.000000
vn 0.000000 1.000000 0.000000
vn 0.000000 1.000000 0.000000
vn 0.000000 1.000000 0.000000
vn 0.000000 1.000000 0.000000
vn 0.000000 0.000000 -1.000000
vn 0.000000 0.000000 -1.000000
vn 0.000000 0.000000 -1.000000
vn 0.000000 0.000000 -1.000000
vn 0.000000 -1.000000 0.000000
vn 0.000000 -1.000000 0.000000
vn 0.000000 -1.000000 0.000000
vn 0.000000 -1.000000 0.000000
vn 1.000000 0.000000 0.000000
vn 1.000000 0.000000 0.000000
vn 1.000000 0.000000 0.000000
vn 1.000000 0.000000 0.000000
vn -1.000000 0.000000 0.000000
vn -1.000000 0.000000 0.000000
vn -1.000000 0.000000 0.000000
vn -1.000000 0.000000 0.000000
s 1
g pCube1 pCube12 pCube8
usemtl lambert3SG
f 97/169/289 98/170/290 99/171/291
f 99/171/291 98/170/290 100/172/292
s 2
f 99/171/293 100/172/294 101/173/295
f 101/173/295 100/172/294 102/174/296
s 3
f 101/173/297 102/174/298 103/175/299
f 103/175/299 102/174/298 104/176/300
s 4
f 103/175/301 104/176/302 97/177/303
f 97/177/303 104/176/302 98/178/304
s 5
f 98/170/305 104/179/306 100/172/307
f 100/172/307 104/179/306 102/180/308
s 6
f 103/181/309 97/169/310 101/182/311
f 101/182/311 97/169/310 99/171/312
